<svg id="Layer_1" data-name="Layer 1" xmlns="http://www.w3.org/2000/svg" xmlns:xlink="http://www.w3.org/1999/xlink" viewBox="0 0 4000 4000"><defs><style>.cls-1{fill:none;}.cls-2{clip-path:url(#clip-path);}.cls-3{fill:#ffcc80;}.cls-4{fill:#fbead0;}.cls-5{fill:#650000;}.cls-6{opacity:0.6;}.cls-7{fill:#fff;}.cls-8{opacity:0.3;}.cls-9{fill:#fa2;}.cls-10{fill:#f5b945;}.cls-11{fill:#ad6f44;}.cls-12{opacity:0.25;}.cls-13{fill:#be9577;}.cls-14{fill:#fdfffe;}.cls-15{fill:#fcc59c;}.cls-16{fill:#792937;}</style><clipPath id="clip-path"><ellipse class="cls-1" cx="2000" cy="1970.22" rx="1676.67" ry="1633.33"/></clipPath></defs><title>Coffee </title><g class="cls-2"><rect class="cls-3" width="4000" height="4000"/><path class="cls-4" d="M3096.19,2693.26c0,242.06-494,438.27-1103.34,438.27S889.51,2935.32,889.51,2693.26c0-97,79.38-186.68,213.71-259.23a1006.81,1006.81,0,0,1,100.29-46.94c200.33-81.51,480-132.11,789.34-132.11a2688.92,2688.92,0,0,1,308.5,17.41c357.71,41.25,640.4,152.58,747.9,294C3079.78,2606.58,3096.19,2649.16,3096.19,2693.26Z"/><path class="cls-5" d="M1992.85,3134c-295,0-572.42-45.65-781.1-128.54C1002.34,2922.31,887,2811.42,887,2693.26c0-95.06,74.35-185.46,215-261.43a1014.61,1014.61,0,0,1,100.54-47.06c209.66-85.31,490.33-132.29,790.28-132.29a2696.79,2696.79,0,0,1,308.78,17.42c360.6,41.59,640.83,151.87,749.61,295,31.49,41.42,47.45,84.6,47.45,128.36,0,118.16-115.33,229-324.74,312.23C2565.27,3088.38,2287.87,3134,1992.85,3134Zm0-876.55c-299.32,0-579.31,46.85-788.4,131.92a1009.05,1009.05,0,0,0-100,46.83c-139,75-212.39,163.92-212.39,257C892,2933.54,1385.85,3129,1992.85,3129s1100.84-195.49,1100.84-435.77c0-42.64-15.62-84.81-46.43-125.33-52.49-69.07-149-132.62-279.05-183.78-130.4-51.28-291.93-89.08-467.15-109.28A2689.11,2689.11,0,0,0,1992.85,2257.48Z"/><g class="cls-6"><path class="cls-7" d="M2620.7,2332.84c-81.18-19.53-169.28-35-262.41-45.76a2679.56,2679.56,0,0,0-308.49-17.44c-309.35,0-589,50.64-789.34,132.1a1006.81,1006.81,0,0,0-100.29,46.94c-134.33,72.55-213.71,162.21-213.71,259.27,0,149.37,188.15,281.28,475.5,360.42-319.17-76.82-532.45-216.08-532.45-375.11,0-97,79.38-186.68,213.71-259.23a1006.81,1006.81,0,0,1,100.29-46.94c200.33-81.51,480-132.11,789.34-132.11a2688.92,2688.92,0,0,1,308.5,17.41C2416.71,2285.71,2524.3,2306.29,2620.7,2332.84Z"/></g><path class="cls-5" d="M1992.85,3151.53c-297.19,0-576.88-46.09-787.58-129.78-216.53-86-335.78-202.67-335.78-328.48s119.25-242.48,335.78-328.49C1416,2281.1,1695.66,2235,1992.85,2235s576.89,46.09,787.58,129.77c216.53,86,335.78,202.67,335.78,328.49S2997,2935.74,2780.43,3021.75C2569.74,3105.44,2290,3151.53,1992.85,3151.53Zm0-876.52c-292.25,0-566.7,45.08-772.81,126.95-197.36,78.39-310.55,184.57-310.55,291.31s113.19,212.91,310.55,291.31c206.11,81.86,480.56,127,772.81,127s566.71-45.09,772.81-127c197.36-78.4,310.55-184.57,310.55-291.31S2963,2480.35,2765.66,2402C2559.56,2320.09,2285.1,2275,1992.85,2275Z"/><path class="cls-5" d="M1989.69,3044.64c-215.1,0-417.56-31.9-570.07-89.82C1262.54,2895.16,1176,2814,1176,2726.32s86.51-168.85,243.59-228.51c152.51-57.92,355-89.82,570.07-89.82s417.56,31.9,570.07,89.82c157.08,59.66,243.59,140.81,243.59,228.51s-86.51,168.84-243.59,228.5C2407.25,3012.74,2204.8,3044.64,1989.69,3044.64Zm0-606.65c-211.55,0-410.22,31.21-559.41,87.87C1287.76,2580,1206,2653.05,1206,2726.32s81.73,146.33,224.25,200.46c149.19,56.66,347.86,87.86,559.41,87.86s410.23-31.2,559.41-87.86c142.52-54.13,224.25-127.19,224.25-200.46S2691.62,2580,2549.1,2525.86C2399.92,2469.2,2201.25,2438,1989.69,2438Z"/><g class="cls-8"><path class="cls-5" d="M3049.25,2566.42,2788.36,2708c-301.9,185.07-628.55,202.81-859.66,152.21,17,39.55-55.24,99.29-189.62,118l125.84-134.38c-108.16-32.05-188.34-79.47-224.52-129l660.95-442.39C2659.06,2313.64,2941.75,2425,3049.25,2566.42Z"/></g><path class="cls-9" d="M3282.59,2180.82q-9.75,13.88-19.92,26.89a652.3,652.3,0,0,1-83.26,89.24,585.29,585.29,0,0,1-56.43,44c-1.23.85-2.46,1.71-3.7,2.51-108.44,72.88-232.15,100.38-358.85,87.49-4-.34-8-.81-12-1.28l10.38-15.41L2866.08,2255c53.2.71,103.27-15,147.89-41.39a364.3,364.3,0,0,0,52.16-37.51,420.12,420.12,0,0,0,31.44-30.15c130-138.27,169.18-364.83,9.91-414.9-1.9-.57-3.8-1.14-5.74-1.66-22.57-6.35-48.89-9.29-79.28-8.11l8.68-169A310.77,310.77,0,0,1,3160.87,1563a305.89,305.89,0,0,1,109.86,60.08C3395.49,1729.18,3441.81,1939.52,3282.59,2180.82Z"/><g class="cls-6"><path class="cls-7" d="M3140.24,2142.08a418.25,418.25,0,0,1-31.44,30.16,363.65,363.65,0,0,1-52.15,37.51c-43.15,25.56-91.38,41-142.59,41.35,35.42-6.07,69-19.21,99.91-37.51a364.3,364.3,0,0,0,52.16-37.51,420.12,420.12,0,0,0,31.44-30.15c130-138.27,169.18-364.83,9.91-414.9-1.9-.57-3.8-1.14-5.74-1.66-3.23-.9-6.5-1.75-9.91-2.51,19.44-2.66,36.65-5.84,52.58-1.33,2,.52,3.84,1.09,5.74,1.66C3309.42,1777.26,3270.26,2003.82,3140.24,2142.08Z"/></g><g class="cls-6"><path class="cls-7" d="M2914.06,2251.1c-1.94.37-3.93.71-6,1l.66-1C2910.51,2251.19,2912.31,2251.19,2914.06,2251.1Z"/><path class="cls-5" d="M2902.75,2255.36l4.73-6.75,1.34,0c1.69.05,3.42.05,5.11,0l.61,5q-3,.59-6.1,1Z"/></g><path class="cls-9" d="M3031.23,1538.23c0,1669.21-2076.75,1669.21-2076.75,0,0-172.64,464.92-312.57,1038.37-312.57S3031.23,1365.59,3031.23,1538.23Z"/><path class="cls-4" d="M3015.68,1730.74l-9.68,63.4c0,544-2032.61,544-2032.61,0l-8.48-84C1063.11,2191.82,2868.88,2198.7,3015.68,1730.74Z"/><g class="cls-8"><path class="cls-5" d="M1142.67,1598.85c283.55-250.19,1487.33-212.26,1706.2,12.59,92.6-110.62-100.48-184.32-100.48-184.32C2237.27,1292,1732.84,1292,1235.7,1438.75,1235.7,1438.75,1055,1523.54,1142.67,1598.85Z"/></g><g class="cls-6"><path class="cls-7" d="M1006.63,1561.94c0,599.77,268.15,984,611.73,1152.84-368.24-154.53-663.88-546.71-663.88-1176.55,0-172.64,464.92-312.57,1038.37-312.57,378.81,0,710.3,61.08,891.67,152.3C2695.66,1300,2390,1249.37,2045,1249.37,1471.55,1249.37,1006.63,1389.3,1006.63,1561.94Z"/></g><path class="cls-10" d="M960.73,1668.63l4.18,41.54A207.19,207.19,0,0,1,960.73,1668.63Z"/><path class="cls-5" d="M962.46,1710.67a210.07,210.07,0,0,1-4.23-42l5-.25,4.18,41.54Z"/><path class="cls-5" d="M1992.85,2810.14c-277.63,0-536.35-113.41-728.5-319.33-215.81-231.27-329.87-560.67-329.87-952.58,0-93.08,113.06-178.37,318.37-240.17,197.94-59.58,460.74-92.4,740-92.4s542.06,32.82,740,92.4c205.31,61.8,318.38,147.09,318.38,240.17,0,391.91-114.07,721.31-329.87,952.58C2529.21,2696.73,2270.49,2810.14,1992.85,2810.14Zm0-1564.48c-609.17,0-1018.37,151.28-1018.37,292.57,0,846.41,527.89,1231.91,1018.37,1231.91s1018.38-385.5,1018.38-1231.91C3011.23,1396.94,2602,1245.66,1992.85,1245.66Z"/><path class="cls-11" d="M2848.87,1611.44v0c-10.29,11.15-23.38,22-39.08,32.48-131.91,88.15-448,150.17-816.94,150.17-24.75,0-49.31-.28-73.54-.85-337-7.59-620.35-67.1-743.4-149.32-.05,0-.05,0-.09,0a238.45,238.45,0,0,1-29.07-22.58c-6.45-6.59-10.72-11-12.38-12.7a4.38,4.38,0,0,0-.42-.43,3,3,0,0,0-.29-.33c72.41-79,286.64-142.54,564.17-169.14,91.37-8.77,189.57-13.56,291.85-13.56C2407.32,1425.19,2757.21,1504.66,2848.87,1611.44Z"/><path class="cls-5" d="M2848.87,1626.47a15,15,0,0,1-11.91-5.86c-90.87-104.58-446.82-180.42-847.28-180.42-390.33,0-741.84,73-841.4,174.09a15,15,0,0,1-24.44,5,3.49,3.49,0,0,1-.26-.27,14,14,0,0,1-1.18-1.25,15,15,0,0,1,.21-20c101.25-110.43,457.8-187.56,867.07-187.56,415.8,0,773.8,78.74,870.57,191.48a15,15,0,0,1-11.38,24.8Z"/><g class="cls-12"><path class="cls-7" d="M1499,1909c-100.2-17.37-173.51-37.14-225.31-54.54-46.2-15.52-91.23,26.12-79.39,73.41,22.2,88.7,57.78,209.08,104.7,297.56a141,141,0,0,0,106.52,73.66l142.62,18.46c38.85,5,70.95-30,62.49-68.24-16.16-73-24.68-156.88-21.65-228.59A108.7,108.7,0,0,0,1499,1909Z"/></g><g class="cls-12"><path class="cls-7" d="M1644,2603c-99-39-172.92-121.53-212.74-174.85-14.16-19,1.2-45.69,24.73-43.16l124.47,13.36a77.75,77.75,0,0,1,66.81,57.26l31,116.39C1683.79,2592.48,1663.72,2610.79,1644,2603Z"/></g><path class="cls-5" d="M2820.54,2454.07a617.92,617.92,0,0,1-74.56-4.57,20,20,0,0,1,4.81-39.71c205.15,24.86,388.15-60.44,515.28-240.25,110.71-167.93,129.12-336.66,50.51-462.95-60.62-97.39-169-148.92-282.93-134.5a20,20,0,0,1-5-39.69c129.58-16.42,252.94,42.24,321.91,153,40.19,64.56,58.4,142.33,52.67,224.89-6.38,92-41.35,186.66-103.92,281.5l-.36.52C3178.44,2362.93,3010.58,2454.06,2820.54,2454.07Z"/><path class="cls-13" d="M2112.86,1742.88c-62,6.64-107.54,32-119.91,61-12.33-29-57.9-54.34-119.92-61-175.16-26.83-326.18-52.91-311.48-159.51,46.8-131.29,379.33-135.13,431.4-12.94,52.06-122.19,384.64-118.35,431.39,12.94C2439,1690,2288,1716.05,2112.86,1742.88Z"/><path class="cls-5" d="M2869.62,2275c-1.27,0-2.53,0-3.81,0a20,20,0,0,1,.54-40c125.4,1.68,224.79-93.55,276.1-183.23,53-92.69,64.35-190.47,28.81-249.11-26.36-43.51-76.12-64.15-148-61.4a20,20,0,1,1-1.54-40c108.93-4.18,160.09,41.53,183.78,80.64,43.61,72,32.77,183-28.3,289.7C3120.71,2170.29,3010.47,2275,2869.62,2275Z"/><path class="cls-14" d="M1993,1786.58c30.38-68.91,236.32-82.39,347.48-138.64,29.52-14.94,46.34-39.87,39.85-64.79-22.66-87.07-300.35-104.57-387.33-12.73-87-91.84-364.66-74.34-387.33,12.73-6.48,24.92,10.34,49.85,39.86,64.79C1756.64,1704.19,1962.58,1717.67,1993,1786.58Z"/><path class="cls-15" d="M1989.69,1605.57a236,236,0,0,0-75-33.86c-26.37-7-53.64-10-80.73-10.1-27.08.2-54.22,3.13-79.93,10-12.76,3.46-25.35,7.84-36,14-5.23,3-10.09,6.61-12.81,10.12A11,11,0,0,0,1703,1600a4.37,4.37,0,0,0,.42,2.94,16.51,16.51,0,0,0,3.56,4.63,73.78,73.78,0,0,0,6.83,5.43,112.93,112.93,0,0,0,16.4,9.58c11.73,5.91,24.48,10.84,37.33,15.59,25.76,9.51,52.34,17.9,78.68,27.33,26.42,9.21,52.77,19.15,78.32,31.21,12.68,6.24,25.25,12.81,37,20.76s22.89,17.07,31.31,28.31c-10.38-9.43-22.27-16.53-34.6-22.62a345.42,345.42,0,0,0-38.2-15.7c-26-9.28-52.68-16.68-79.41-24.31-26.81-7.41-53.7-14.85-80.58-23.76a358.78,358.78,0,0,1-40.15-15.78,132.26,132.26,0,0,1-19.72-11.37,91.49,91.49,0,0,1-9.53-7.56,39,39,0,0,1-8.87-12,28.27,28.27,0,0,1-1.94-17.46,34.17,34.17,0,0,1,7-14.19,52.67,52.67,0,0,1,9.57-9.18,77.16,77.16,0,0,1,10.13-6.6c13.73-7.49,27.82-12.07,42-15.44a296.07,296.07,0,0,1,86-6.61,288,288,0,0,1,83.7,17.5C1944.84,1570.92,1969.94,1585.61,1989.69,1605.57Z"/><path class="cls-15" d="M1992.85,1605.57c19.76-20,44.86-34.65,71.43-44.88a288,288,0,0,1,83.69-17.5,296.16,296.16,0,0,1,86,6.61c14.22,3.37,28.31,8,42.05,15.44a78.51,78.51,0,0,1,10.13,6.6,52.63,52.63,0,0,1,9.56,9.18,34.17,34.17,0,0,1,7,14.19,28.2,28.2,0,0,1-1.94,17.46,38.85,38.85,0,0,1-8.86,12,91.55,91.55,0,0,1-9.54,7.56,132.67,132.67,0,0,1-19.71,11.37,359.68,359.68,0,0,1-40.16,15.78c-26.87,8.91-53.77,16.35-80.58,23.76-26.72,7.63-53.43,15-79.41,24.31a345.42,345.42,0,0,0-38.2,15.7c-12.32,6.09-24.22,13.19-34.6,22.62,8.43-11.24,19.6-20.39,31.31-28.31s24.34-14.52,37-20.76c25.55-12.06,51.91-22,78.32-31.21,26.34-9.43,52.93-17.82,78.69-27.33,12.85-4.75,25.6-9.68,37.32-15.59a112.93,112.93,0,0,0,16.4-9.58,72.46,72.46,0,0,0,6.83-5.43,16.39,16.39,0,0,0,3.57-4.63,4.3,4.3,0,0,0,.41-2.94,11,11,0,0,0-2.28-4.32c-2.72-3.51-7.58-7.11-12.8-10.12-10.63-6.16-23.21-10.54-36-14-25.71-6.82-52.86-9.75-79.94-10-27.09.1-54.35,3.05-80.73,10.1A236.06,236.06,0,0,0,1992.85,1605.57Z"/><path class="cls-15" d="M1991.26,1629.13a194.88,194.88,0,0,0-43.59-18.67,187.11,187.11,0,0,0-22.92-5.46,185.06,185.06,0,0,0-23.29-2.93c-15.5-.94-31.43-.57-45.84,3.68a47.16,47.16,0,0,0-10,4.11c-2.9,1.75-5.31,4-6.13,6.15-1.94,4,2.58,10.22,8.15,14.81l-.36-.27c11.35,7.64,24,13.81,36.57,20.07s25.52,12,38.29,18.13,25.57,12.32,38,19.39A171.06,171.06,0,0,1,1978,1699.9a59.3,59.3,0,0,1,8,7.18c2.39,2.64,4.53,5.77,5.21,9.28a19.4,19.4,0,0,0-6.16-8.33,64,64,0,0,0-8.43-6.18,169,169,0,0,0-18.6-9.82c-12.72-6-25.79-11.29-38.82-16.76s-26.14-10.86-39.11-16.74-25.8-12.21-38.07-20.19l-.23-.14-.14-.13c-3.24-2.89-6.6-5.73-9.08-10a13.17,13.17,0,0,1-1.66-3.36,12.89,12.89,0,0,1-1.07-3.83,12.06,12.06,0,0,1-.11-4.2,11.21,11.21,0,0,1,1-4.11c2.21-5.26,6.34-8.35,10.18-10.67a55.44,55.44,0,0,1,12.09-4.89c16.38-4.37,32.91-4.22,49.06-2.53a190.16,190.16,0,0,1,47.09,11.41A170.33,170.33,0,0,1,1991.26,1629.13Z"/><path class="cls-15" d="M1991.26,1629.13a170.57,170.57,0,0,1,42-23.25,190,190,0,0,1,47.09-11.41c16.15-1.69,32.68-1.84,49.06,2.53a55.44,55.44,0,0,1,12.09,4.89c3.84,2.32,8,5.41,10.18,10.67a11.21,11.21,0,0,1,1,4.11,12.06,12.06,0,0,1-.11,4.2,12.89,12.89,0,0,1-1.07,3.83,13.17,13.17,0,0,1-1.66,3.36c-2.48,4.28-5.84,7.12-9.08,10l-.14.13-.23.14c-12.27,8-25.09,14.34-38.07,20.19s-26,11.36-39.11,16.74-26.1,10.78-38.83,16.76a169.78,169.78,0,0,0-18.59,9.82,64,64,0,0,0-8.43,6.18,19.51,19.51,0,0,0-6.17,8.33c.69-3.51,2.83-6.64,5.22-9.28a59.3,59.3,0,0,1,8-7.18,170,170,0,0,1,17.92-11.76c12.39-7.07,25.15-13.34,38-19.39s25.65-12,38.29-18.13,25.22-12.43,36.57-20.07l-.36.27c5.56-4.59,10.09-10.77,8.15-14.81-.82-2.18-3.23-4.4-6.13-6.15a47.16,47.16,0,0,0-10-4.11c-14.41-4.25-30.34-4.62-45.84-3.68a185.06,185.06,0,0,0-23.29,2.93,187.11,187.11,0,0,0-22.92,5.46A195.16,195.16,0,0,0,1991.26,1629.13Z"/><path class="cls-15" d="M1796.07,1583.37c-5.61,3.52-11.14,6.92-14.93,10.93-3.77,4.37-3.75,7.14-.7,11.45s7.76,8.23,12.58,12.11,10,7.74,14.91,12.34a65.16,65.16,0,0,1-18.89-6.09c-5.92-3-11.81-6.71-16.38-12.94-2.12-3.1-4.05-7.49-3.28-12.29a15.83,15.83,0,0,1,7-10.21A33.12,33.12,0,0,1,1796.07,1583.37Z"/><path class="cls-5" d="M2725.64,1414.86a380,380,0,0,1,66.68,24.22c5.35,2.66,10.73,5.31,16,8.14,5.16,3.11,10.5,5.91,15.55,9.32a198.17,198.17,0,0,1,29.38,22.38c9.06,8.71,17.79,18.29,24.6,29.83a89.09,89.09,0,0,1,12.27,39.34c1.2,14.19-2.15,28.59-7.75,41a128.92,128.92,0,0,1-22.07,32.86l4.1-10.52v0a15.14,15.14,0,0,1-4,10.41l-.14.16a228.74,228.74,0,0,1-44.37,37l-24.07,14.75c-8.23,4.4-16.57,8.48-24.85,12.73a729.7,729.7,0,0,1-102.79,40.08c-69.86,21.82-141.1,37.27-212.77,48.87s-143.81,19.32-216,24.83c-36.1,2.92-72.27,4.59-108.43,6.33l-54.28,1.58c-18.09.62-36.19.42-54.28.69-144.73,1.17-289.66-6.85-433.28-27-71.79-10.18-143.31-23.17-213.91-41.5l-26.41-7.12-26.18-8.17c-17.53-5.11-34.71-11.79-51.91-18.14-8.58-3.24-17-7.21-25.45-10.79l-12.67-5.56c-4.18-2-8.26-4.23-12.4-6.33l-12.36-6.42a139.09,139.09,0,0,1-12.22-6.75l-23.79-15,8.06,2.44-.09,0-8.06-2.44a270.4,270.4,0,0,1-22.75-17.67,123.15,123.15,0,0,1-10.61-10.13l-10.09-10.82,2.09,2a17.5,17.5,0,0,1-3.52-3.72l.67.91a5.86,5.86,0,0,0,.72.77l-.69-.73a121,121,0,0,1-18.38-30.28,81,81,0,0,1,3.62-70.75,123.13,123.13,0,0,1,20.47-27.62c15.87-15.9,34-28.26,52.91-38.61a420.88,420.88,0,0,1,58.51-26.22,2.29,2.29,0,0,1,3,1.38,2.33,2.33,0,0,1-1.09,2.82c-18.61,10-37,20.32-54,32.26s-33.06,25.17-45.8,40.5c-12.47,15.28-21.72,33-21,50.75-.13,17.68,9.11,34.41,22,48.45l-.68-.74c.45.46.88.94,1.29,1.43l.66.92a10,10,0,0,0-2.66-2.86l2.09,1.94,9,8.73a98.82,98.82,0,0,0,9.47,8.32,242.72,242.72,0,0,0,21,14.89l-8.06-2.44.09,0,8.06,2.45c59.09,35.83,127.22,58.63,195.59,77.53,68.61,19,139,32.56,209.82,42.69,141.79,19.93,285.42,27.91,428.82,26.74,17.92-.3,35.86-.22,53.77-.9l53.75-1.82c35.79-1.9,71.6-3.71,107.3-6.77,71.42-5.77,142.59-14.33,213.08-26.27s140.4-27,208-48.39c17.05-5,33.53-11.32,50.17-17.22,8.42-2.77,16.3-6.58,24.47-9.85,8.06-3.46,16.34-6.56,24-10.65,7.77-3.91,15.66-7.66,23.35-11.67l22.19-13.18a197.82,197.82,0,0,0,39.1-31.22l-4.13,10.56v-.39a15,15,0,0,1,4.09-10.18c14.31-15.2,24.08-33.18,23-51.34a64.27,64.27,0,0,0-7.37-27.07,129.15,129.15,0,0,0-18.1-25.22c-3.8-3.85-7.46-7.83-11.67-11.42-3.93-3.83-8.23-7.37-12.56-10.91-8.69-7-18-13.53-27.36-20-19-12.62-39.09-24.22-59.43-35.82a2.31,2.31,0,0,1-.88-3.16A2.34,2.34,0,0,1,2725.64,1414.86Z"/><path class="cls-13" d="M2448.31,1542.51c9.64,2.41,18.54,6.92,27.07,12.3A85.94,85.94,0,0,1,2498,1576a61.57,61.57,0,0,1,11.69,31.49c.74,11.85-2.69,23.59-8,33.34-11.13,19.52-28,32.24-45.17,42.08a183.71,183.71,0,0,1-55.19,20.15c15.14-12.61,30.53-23.64,44.62-35.5s27.15-24.27,35-38.16a47.59,47.59,0,0,0,6.36-21.33c.18-7.3-1.71-14.9-5.19-22.51C2474.83,1570.37,2462.23,1556.15,2448.31,1542.51Z"/><path class="cls-13" d="M1528.05,1542.51c-13.92,13.64-26.52,27.86-33.73,43.09-3.48,7.61-5.37,15.21-5.19,22.51a47.59,47.59,0,0,0,6.36,21.33c7.82,13.89,21,26.42,35,38.16s29.48,22.89,44.62,35.5a183.71,183.71,0,0,1-55.19-20.15c-17.16-9.84-34-22.56-45.17-42.08-5.33-9.75-8.76-21.49-8-33.34a61.49,61.49,0,0,1,11.7-31.49,85.75,85.75,0,0,1,22.58-21.23C1509.51,1549.43,1518.41,1544.92,1528.05,1542.51Z"/><ellipse class="cls-13" cx="2693.14" cy="1595.58" rx="38" ry="14.57"/><ellipse class="cls-13" cx="1273.7" cy="1605.57" rx="38" ry="14.57"/><ellipse class="cls-13" cx="2660.73" cy="1643.53" rx="24.59" ry="9"/><ellipse class="cls-13" cx="1347.34" cy="1566.17" rx="24.59" ry="9"/><ellipse class="cls-13" cx="2616.59" cy="1611.33" rx="13.41" ry="4.62"/><path class="cls-13" d="M1388.49,1621.29c0,3.15-7.42,5.71-16.56,5.71s-16.56-2.56-16.56-5.71,7.41-5.7,16.56-5.7S1388.49,1618.14,1388.49,1621.29Z"/><g class="cls-8"><path class="cls-5" d="M1786.58,2752.19l.52-.07c16.56,3,35,6.23,55,9.72,522,53.56,1077.51-318.28,1132.61-1115.27h0c-49.09,69.14-158.07,146.94-381.3,218.87a77.71,77.71,0,0,0-53.92,76.12C2552.87,2421.92,2280.77,2683.55,1786.58,2752.19Z"/></g><g class="cls-8"><path class="cls-16" d="M1919.31,1793.29c-337-7.59-620.35-67.1-743.4-149.32-.05,0-.05,0-.09,0a238.45,238.45,0,0,1-29.07-22.58c-6.45-6.59-10.72-11-12.38-12.7a4.38,4.38,0,0,0-.42-.43,3,3,0,0,0-.29-.33c72.41-79,286.64-142.54,564.17-169.14l2.6,1.85C1191.94,1598.36,1369.28,1708.65,1919.31,1793.29Z"/></g><g class="cls-8"><path class="cls-5" d="M3270.73,1623.06c-72.17-6.26-129.26,37.84-169,106.31-22.57-6.35-48.89-9.29-79.28-8.11l8.68-169A310.77,310.77,0,0,1,3160.87,1563,305.89,305.89,0,0,1,3270.73,1623.06Z"/></g><g class="cls-8"><path class="cls-5" d="M3179.41,2297a585.29,585.29,0,0,1-56.43,44c-1.23.85-2.46,1.71-3.7,2.51-108.44,72.88-232.15,100.38-358.85,87.49-4-.34-8-.81-12-1.28l10.38-15.41L2866.08,2255c53.2.71,103.27-15,147.89-41.39a364.3,364.3,0,0,0,52.16-37.51C3089.36,2235.4,3126.73,2280.3,3179.41,2297Z"/></g><g class="cls-8"><path class="cls-5" d="M2049.8,3028.78c-8-.38-15.93-.81-23.76-1.24C764.33,2957.46,1103.22,2434,1103.22,2434a1006.81,1006.81,0,0,1,100.29-46.94q95,132.72,222.33,219.68C1156.19,2815.54,1423.33,2947.79,2049.8,3028.78Z"/></g><path class="cls-11" d="M1219,2924.56c-82.27-36.92-100.63-174.7-41-307.77,56.79-126.65,163.73-203.42,244.93-178.69a102.91,102.91,0,0,1,12.14,4.53c1.62.65,3.24,1.3,4.86,2C1760.16,2575.33,1558.58,3076.8,1219,2924.56Z"/><g class="cls-8"><path class="cls-5" d="M1219,2924.56c-28.29-12.69-49-37.25-61.54-69.48,265,93.07,435-213.19,313.87-395.61C1746,2609.23,1546.86,3071.51,1219,2924.56Z"/></g><g class="cls-6"><path class="cls-7" d="M1569.48,2553.79c-26.29-30.77-62.29-56.85-109.15-75.15l-.2-.09c-10.75-4.82-23.4.26-28.43,10.91L1233.59,2908.8l-25-15.6L1408,2469.79l15-31.69c.11.05.21.05.32.1,1.41.44,2.76.87,4.1,1.41a82.76,82.76,0,0,1,7.72,3c1.62.65,3.24,1.3,4.86,2h0C1501.49,2469.77,1543.82,2508.56,1569.48,2553.79Z"/></g><g class="cls-6"><path class="cls-7" d="M1423,2438.1l-15,31.69c-73.58,5.13-157,76.39-204.76,183-41.73,93.12-45.3,188.57-15.44,250.11-54.75-54.41-61-172-9.77-286.12C1234.83,2490.14,1341.77,2413.37,1423,2438.1Z"/></g><path class="cls-5" d="M1343.68,2969.71c-42.44,0-86.76-10-131.46-30h0c-45.24-20.3-74.84-66.74-83.37-130.78-8.14-61.14,4-131.79,34-198.92s74.8-123.18,125.87-157.78c53.35-36.15,107.58-45,152.76-24.9,98.58,38.6,160.17,113.52,173.42,211,14.2,104.48-32.66,216.87-116.61,279.67C1452.35,2952.38,1399.65,2969.71,1343.68,2969.71Zm-117.88-60.29c92.16,41.31,181.89,34.92,252.65-18,74.59-55.8,116.22-155.71,103.6-248.62-11.57-85.13-65.9-150.72-153-184.7-.25-.1-.5-.2-.76-.32-34.37-15.41-77.32-7.63-120.94,21.93-46,31.19-86.59,82.29-114.2,143.88-55.81,124.48-41.17,252.71,32.62,285.84Z"/><path class="cls-5" d="M1263,2947.27a120.12,120.12,0,0,1-49.51-10.41,13.5,13.5,0,1,1,11-24.63c35.38,15.86,79.38,8,123.92-22.19,46.5-31.51,87.44-83.06,115.29-145.17s39.1-127,31.69-182.65c-7.1-53.32-30.49-91.42-65.87-107.28a13.5,13.5,0,0,1,11-24.63c44.22,19.83,73.19,65.41,81.57,128.35,8.07,60.58-3.94,130.63-33.81,197.25s-74.18,122.19-124.78,156.47C1329.49,2935.49,1295.06,2947.26,1263,2947.27Z"/><path class="cls-5" d="M1199.31,2926.36a13.5,13.5,0,0,1-12.2-19.25l223.74-474.67a13.49,13.49,0,1,1,24.41,11.51l-223.73,474.66A13.5,13.5,0,0,1,1199.31,2926.36Z"/><path class="cls-11" d="M1393.25,2775.15c-10.5-79.76,85.5-158.22,214.47-175.26,122.76-16.2,231.13,29,250.39,102.26a90.4,90.4,0,0,1,2.24,11.35c.27,1.53.54,3.07.76,4.62C1911.85,3022.43,1436.71,3104.26,1393.25,2775.15Z"/><g class="cls-8"><path class="cls-5" d="M1393.25,2775.15c-3.62-27.42,5.35-54.62,23.92-79.27,53.47,244.8,365.58,230.38,447.36,53C1879.48,3027.57,1435.24,3092.89,1393.25,2775.15Z"/></g><g class="cls-6"><path class="cls-7" d="M1838.9,2867.58c11-34.37,14-73.93,5.92-118.07l0-.19c-1.38-10.43-11.16-17.65-21.6-16.48l-411.16,46,.14-26.28L1827,2705.64l31.07-3.49c0,.11.06.19.07.3.33,1.27.63,2.5.85,3.77a72.91,72.91,0,0,1,1.32,7.28c.27,1.53.54,3.07.76,4.62h0C1870.84,2776.6,1861.22,2826.91,1838.9,2867.58Z"/></g><g class="cls-6"><path class="cls-7" d="M1858.11,2702.15l-31.07,3.49c-38.35-53.46-131.52-83.41-234.85-69.74-90.24,11.93-164.38,53.93-197.12,105.42,15.68-67.05,102-126.83,212.65-141.43C1730.48,2583.69,1838.85,2628.93,1858.11,2702.15Z"/></g><path class="cls-5" d="M1623.8,3003.45a260.23,260.23,0,0,1-95.39-17.65c-84.41-33.31-138.25-107.34-151.61-208.48h0c-11.88-90.21,88.6-175.37,228.75-193.88,65.4-8.65,129.22-.9,179.71,21.81,53,23.82,85.48,61.34,91.49,105.66,17,93.58-11.29,176-79.61,232.15C1749.15,2982.5,1686.18,3003.45,1623.8,3003.45ZM1409.7,2773c11.71,88.65,58.2,153.26,130.89,181.94,76.71,30.27,171.34,15.2,235.48-37.5,58.69-48.23,82.82-119.59,68-200.94,0-.27-.09-.54-.13-.81-4.31-32.68-30-61.14-72.25-80.15-44.94-20.21-102.38-27-161.75-19.18-117.65,15.54-209.33,87.28-200.2,156.65Z"/><path class="cls-5" d="M1596.28,2904.07c-46.08,0-89.62-8.47-126.06-24.85-51.66-23.23-83.23-59.63-88.89-102.5a12,12,0,1,1,23.87-3.15c4.53,34.29,31.12,64,74.89,83.69,45.7,20.54,104,27.48,164.21,19.54,122.19-16.13,213.76-88.69,204.12-161.74a12,12,0,1,1,23.87-3.15c11.38,86.21-89.48,170.89-224.84,188.76A390.85,390.85,0,0,1,1596.28,2904.07Z"/><path class="cls-5" d="M1392.9,2766.76a12,12,0,0,1-1.34-24l465.16-52.46a12,12,0,1,1,2.7,23.93l-465.16,52.45A10.44,10.44,0,0,1,1392.9,2766.76Z"/></g></svg>