<svg xmlns="http://www.w3.org/2000/svg" viewBox="0 0 597 597"><defs><style>.cls-1{isolation:isolate;}.cls-2{fill:#ff5252;}.cls-3{fill:#efebe9;mix-blend-mode:multiply;}.cls-4{fill:#37474f;}.cls-5{fill:#fff;}.cls-6{fill:#ffb74d;}.cls-7{fill:#ffa726;}.cls-8{fill:#ff8a80;}.cls-9{fill:#ff1744;}</style></defs><title>Donut</title><g class="cls-1"><g id="Layer_1" data-name="Layer 1"><circle class="cls-2" cx="298.5" cy="298.5" r="298.5"/><ellipse class="cls-3" cx="296.07" cy="503.26" rx="168.54" ry="29.7"/><path class="cls-2" d="M568.33,725.06l-2.59-.6c-6.26-1.47-12.63-3-18.06-6.26-2-1.18-6.77-.28-8.23,1.43s-2.05,4.25-2.82,6.32c3.88,3,9,4.21,14,4.3s10-.85,14.86-1.8l4.1-.79Z" transform="translate(-223 -227)"/><path class="cls-4" d="M546.38,668.54c1-2.4,4.81-2.16,4.9.63.58,16.69-2.57,33.3-1.52,50.17.3,4.78-7.64,4.78-7.91,0C540.94,703.25,540.13,683.82,546.38,668.54Z" transform="translate(-223 -227)"/><path class="cls-2" d="M504.73,731.41l-2.94-.69c-6.25-1.46-12.63-3-18.05-6.25-2-1.19-6.77-.29-8.23,1.42s-2.05,4.25-2.82,6.32c3.87,3,9,4.21,14,4.31s10-.86,14.86-1.8l4.18-.81C505.41,733.07,505.07,732.24,504.73,731.41Z" transform="translate(-223 -227)"/><path class="cls-4" d="M482.43,674.81c1-2.4,4.81-2.16,4.91.62.58,16.7-2.58,33.3-1.52,50.17.3,4.78-7.65,4.78-7.92,0C477,709.51,476.18,690.09,482.43,674.81Z" transform="translate(-223 -227)"/><path class="cls-4" d="M688.64,507.15c-3.9,14,3.86,31.21,12.16,42.61,9.36,12.86,21.63,21.41,37.06,26.73,2.33.8,3.91-2.81,1.65-3.8a77.66,77.66,0,0,1-32.63-27.57,71.41,71.41,0,0,1-8.63-17.93c-2.08-6.6-2.41-13.48-4.17-20.1C693.4,504.52,689.33,504.67,688.64,507.15Z" transform="translate(-223 -227)"/><path class="cls-5" d="M732.78,566.16a20.27,20.27,0,0,1,10.09,1.25,14.12,14.12,0,0,1,4.64,2.5,6,6,0,0,1,.28,9.5,13.43,13.43,0,0,1-12.89,3.88C724.71,580.72,721.43,568.15,732.78,566.16Z" transform="translate(-223 -227)"/><path class="cls-5" d="M744.57,573.42c.61-1.86,2.45-3.17,4.26-3.93,1.64-.7,4.66-1.57,6.23-.33a7.36,7.36,0,0,1,2.94,5.11,2.85,2.85,0,0,1-1.83,2.88,3.24,3.24,0,0,1-3.44-.9,6.93,6.93,0,0,1-1.37-2.58l-.2.1c-1.13.62-1.92,1.66-3,2.27C746.07,577.16,743.87,575.6,744.57,573.42Z" transform="translate(-223 -227)"/><path class="cls-5" d="M740.52,578.24c1.13-1.62,3.3-2.39,5.26-2.64,1.78-.24,4.94-.28,6.07,1.33a7.07,7.07,0,0,1,1.3,5.68,2.94,2.94,0,0,1-2.62,2.27,3.09,3.09,0,0,1-3-1.76,6.52,6.52,0,0,1-.55-2.84l-.23,0c-1.26.3-2.33,1.09-3.58,1.38C740.84,582.23,739.19,580.15,740.52,578.24Z" transform="translate(-223 -227)"/><path class="cls-5" d="M743,570.19a5.36,5.36,0,0,1,1.5-4.27c.9-1.07,2.71-2.73,4.31-2.39a6.42,6.42,0,0,1,4.1,2.63,2.18,2.18,0,0,1-.19,2.69,2.58,2.58,0,0,1-2.79.54,5.85,5.85,0,0,1-2-1.36,1.34,1.34,0,0,1-.11.14c-.56.83-.71,1.84-1.27,2.66A1.92,1.92,0,0,1,743,570.19Z" transform="translate(-223 -227)"/><path class="cls-5" d="M730.69,578.82c.3-1.3,4.12-.06,5.49.47,2.06.81,3.35,3.3,3.45,5.64a7.49,7.49,0,0,1,3.56,1.3c2.84,1.84-.47,5.79-3.3,4-1.47-1-3.53-1.47-4.6-2.87C734.1,585.76,730.24,580.73,730.69,578.82Z" transform="translate(-223 -227)"/><path class="cls-5" d="M723.25,571.81c.71-3.82,4.59-8.88,9.25-8.32a2.13,2.13,0,0,1,1,3.82c-1,.86-2.35,1.21-3.31,2.17a6.19,6.19,0,0,0-1.67,3.08C727.83,575.7,722.66,575,723.25,571.81Z" transform="translate(-223 -227)"/><path class="cls-6" d="M518.43,691.54c-108.62,0-197-83.11-197-185.27S409.81,321,518.43,321s197,83.11,197,185.27S627,691.54,518.43,691.54Zm0-237.32c-30.52,0-55.34,23.35-55.34,52s24.82,52,55.34,52,55.33-23.34,55.33-52S548.94,454.22,518.43,454.22Z" transform="translate(-223 -227)"/><path class="cls-7" d="M542.35,422.15c-35.64-5.59-80.18,16.75-80.18,50.27,0,3.23,3,7.39,7.24,9.78,9.25-16.6,27.74-28,49-28,30.51,0,55.33,23.35,55.33,52a49.33,49.33,0,0,1-7.57,26.15c13.15-2,25.29-17.11,29.6-29.28,3-16.76,3-33.52-5.94-50.27C578,436.11,563.13,427.73,542.35,422.15Z" transform="translate(-223 -227)"/><path class="cls-7" d="M432.48,623.23c-31.6-27-57.65-103.73-107.73-83.36C341.61,626,422,691.54,518.43,691.54c58.65,0,111.36-24.27,147.48-62.65C594.84,671.46,494,675.78,432.48,623.23Z" transform="translate(-223 -227)"/><path class="cls-2" d="M692.67,525.39a153.27,153.27,0,0,0-3.12-21.22,35.18,35.18,0,0,0,1.12-8.22c.16-22.95-8.4-50.19-16.76-71.8a139.38,139.38,0,0,0-15.19-28.92c-5.6-8.13-14-14.21-19.24-22.49-1.56-2.47-2.69-5.16-4.16-7.68-14.81-25.48-52.45-32.4-80.32-33.18-5.35-.15-10.83-.19-16.36-.14-23.57-2.46-47.75,1.55-70.17,10.16-22.08,7.31-44.13,18.76-62.73,31.31-24.29,16.38-37.72,39-42.37,66.64-.59,3.48-1,6.94-1.42,10.4-9,16.2-10,33.63.58,50,.53.83,1.09,1.67,1.67,2.51,5.79,29,19.22,56.29,40,80.26A174.81,174.81,0,0,0,470,629.74a54.24,54.24,0,0,1,8.59,4c12.57,8,18.86,17.58,34.66,21.3,18.39,4.34,38.9-2.77,55.72-9.42,16.28-6.44,32.69-12.57,48.9-19.19,30.26-12.36,49.35-29.47,62.38-58.05C686.49,554.67,693.69,540.65,692.67,525.39Zm-99.54-87.56c4.52,7.65,8.58,23.88,12,36.24.4,1.43,4.63,12.34,6.51,19.28q-1.77,4.13-3.53,8.26a82.83,82.83,0,0,0-3.42,18.78c-.16,2-.28,4.22-.36,6.5-1.39,2.34-2.8,4.75-4.38,7.21a86.61,86.61,0,0,1-23.29,24.58c-4.58,3.14-15.2,6.73-25.72,11.22-28.54,1.59-53-3.11-74.16-19.59-19.62-15.24-33.54-35.27-38.87-59.15.13-.32.28-.62.4-.94,7.5-18.77,4-35.83,14.23-52.85.15-.25.29-.52.44-.76,11.57-13.49,30.12-25.09,48.07-30.56a138.88,138.88,0,0,1,22-3.05c12,.87,23.91,5.83,34.47,10.71,8.18,3.78,16.9,7.49,24.38,12.44C588.32,430.37,589,430.86,593.13,437.83Z" transform="translate(-223 -227)"/><path class="cls-8" d="M419.33,374.78C404.18,379.17,394.71,394.4,388,407c-8.32,15.62-14.46,28.77-8.44,46a.89.89,0,0,0,1.73-.22c1.4-29.07,20.2-53.26,41.36-72.57C425.1,378,422.62,373.82,419.33,374.78Z" transform="translate(-223 -227)"/><path class="cls-8" d="M436.58,368l-.95.77c-.59.48.34,1.36.85.81l.82-.9C437.73,368.25,437.08,367.64,436.58,368Z" transform="translate(-223 -227)"/><path class="cls-8" d="M379.72,465.1c-1.38-2.94-6.86-2.94-8.24,0a12.3,12.3,0,0,0-1,5.45c0,2.19,1.18,3.53,2,4.92a3.82,3.82,0,0,0,6.33,0c.82-1.39,2-2.73,2-4.92A12.17,12.17,0,0,0,379.72,465.1Z" transform="translate(-223 -227)"/><path class="cls-8" d="M454.05,361.54a5,5,0,0,0-5.34-2c-4.5,1.08-9.6,5.78-8.32,10.46a3.61,3.61,0,0,0,3.45,2.47,7.42,7.42,0,0,0,3.25-.69,10.56,10.56,0,0,0,1.56-1.08l.17-.14.18-.12.79-.52c-.85.58,1.83-1.38,1.29-1l.26-.18,1-.75a11.45,11.45,0,0,0,.93-1.05C454.62,365.45,455.25,363.29,454.05,361.54Z" transform="translate(-223 -227)"/><path class="cls-8" d="M623.21,475c-1.83-1.45-5.73-.71-5.38,2.1,1.15,9.48,4.94,16.16,1.14,25.65-2.14,5.35-4.33,9.38-5.17,15.22-1.75,12-6,19.62-13.35,29.43-5.05,6.76-10.79,12.85-13.72,20.67-.86,2.29,2.12,4.07,4.16,3,16.6-8.63,31.61-31.37,33.92-48.71,1-7.17,2.68-11.13,5.87-17.54,1.41-2.85,3.16-5.1,3.36-8.4C634.5,489,629,479.56,623.21,475Z" transform="translate(-223 -227)"/><path class="cls-8" d="M621.92,458.67a5.57,5.57,0,0,0-6.7-3.59,5.24,5.24,0,0,0-3.81,6.31,8.26,8.26,0,0,0,4.08,5.59c1.49.67,3.77.78,4.94-.6A8.15,8.15,0,0,0,621.92,458.67Z" transform="translate(-223 -227)"/><path class="cls-8" d="M579.61,579.27a5.06,5.06,0,0,0-5.29-2c-2.44.39-3.61,2.07-4.5,4.06s.93,4.34,2.88,4.78a6.33,6.33,0,0,0,6.18-1.48A4.26,4.26,0,0,0,579.61,579.27Z" transform="translate(-223 -227)"/><path class="cls-8" d="M651.31,583.39a3.42,3.42,0,0,0-3.67-1.41c-2.42.53-3.66,3.11-5,4.84-.56.74-1.14,1.47-1.69,2.21s-1,1.6-1.51,2.39a2.16,2.16,0,0,0,2,3.22,10.53,10.53,0,0,0,7.23-3.17C650.79,589.42,652.85,586.17,651.31,583.39Z" transform="translate(-223 -227)"/><path class="cls-8" d="M601,342.33c-4.62-1.35-12.73-2.11-16.38,1.57-1.5,1.51-1.77,4.15.39,5.37s4.47,1.23,6.94,1.47,4.72.64,7.09.91C604.74,352.33,606.43,343.92,601,342.33Z" transform="translate(-223 -227)"/><path class="cls-9" d="M574.9,632.22c-10,2-16.82,8.85-26.5,11.09-10.91,2.54-30.29.9-40.21-3.6-15.73-7.15-22.65-31-42.11-29.84a1.14,1.14,0,0,0-.85,1.94c15.15,17.44,25.58,40.31,51.54,44.4,10.86,1.71,24.48,1.94,35-1.3s18.16-11.15,25.94-18.09C580,634.83,577.62,631.69,574.9,632.22Z" transform="translate(-223 -227)"/><path class="cls-9" d="M489.15,630.56c-18.58-7.77-35.8-14.9-51.8-27-14.52-11-26.55-24.69-39.77-37-.38-.35-1.1,0-.93.51,11.58,34.22,52.62,63.08,89.14,71C490.35,639.05,493.87,632.53,489.15,630.56Z" transform="translate(-223 -227)"/><path class="cls-9" d="M607.26,484c-4.84-17.1,1.62-41.43-8.58-56.93-8.16-12.4-28.43-20.82-42.85-24.41-28.9-7.2-75-4.15-94.62,20.33-.22.28.15.67.47.58,13.08-3.91,24.52-10.73,38.2-13.3a101.85,101.85,0,0,1,50.36,2.83c14.26,4.5,35,12.27,41,26.2,6.12,14.3,12.35,29.88,14.61,45.07C606,485.25,607.51,484.91,607.26,484Z" transform="translate(-223 -227)"/><path class="cls-9" d="M610.16,479.17c-1.32-6.49-2-13.64-4.72-19.75a2.69,2.69,0,0,0-5.2.66c-.78,6.45,1.15,13.39,3,19.57,1.62,5.48,3.52,11.11,7.92,15.17.11.1.35.07.38-.1C612.49,489.48,611.2,484.34,610.16,479.17Z" transform="translate(-223 -227)"/><path class="cls-4" d="M543.27,349.81c1.78-3.59,4.7-6.07,9.1-6.29,3.85-.19,8.1,1.79,9.7,5.28a10.78,10.78,0,0,1,1.09,6.7c-.5,2.46-1.32,4.89-3.51,6.53a11,11,0,0,1-6.25,2.29c-5,.25-9.85-3-10.68-7.81A11,11,0,0,1,543.27,349.81Z" transform="translate(-223 -227)"/><path class="cls-4" d="M478.89,359.08c1.78-3.59,4.69-6.07,9.09-6.29,3.85-.19,8.1,1.79,9.71,5.28a10.92,10.92,0,0,1,1.09,6.7c-.51,2.46-1.32,4.89-3.52,6.53a11,11,0,0,1-6.24,2.29c-5,.25-9.86-3-10.69-7.81A11,11,0,0,1,478.89,359.08Z" transform="translate(-223 -227)"/><path class="cls-4" d="M512,375.61c3.73,2.57,6.14,5.52,11.25,5.29,4.89-.23,6.56-3.92,10.54-5.43a1.7,1.7,0,0,1,2.34,1.1c1.75,6-7.45,11.16-12.64,12-7.09,1.16-15.35-2.69-17.5-9.26C505,376.24,509.43,373.86,512,375.61Z" transform="translate(-223 -227)"/><path class="cls-8" d="M553.17,368.89a9.34,9.34,0,0,1,5.49,3.39,1.12,1.12,0,0,1-1.27,1.75c-2-.59-4.33-1.79-5.36-3.57A1.11,1.11,0,0,1,553.17,368.89Z" transform="translate(-223 -227)"/><path class="cls-8" d="M547.28,370.13a8.61,8.61,0,0,1,4,2.7c.64.66-.15,1.74-1,1.43a8.53,8.53,0,0,1-4.13-2.54C545.5,370.89,546.22,369.89,547.28,370.13Z" transform="translate(-223 -227)"/><path class="cls-8" d="M485,375.16a8.54,8.54,0,0,1,4.44,3.83.58.58,0,0,1-.6.82,8.6,8.6,0,0,1-5.05-3A1.07,1.07,0,0,1,485,375.16Z" transform="translate(-223 -227)"/><path class="cls-8" d="M477.72,375.82c3.06.45,5.5,2.64,7.81,4.41,1,.72.24,2.49-1,1.93-2.64-1.16-6-2.26-7.69-4.61A1.06,1.06,0,0,1,477.72,375.82Z" transform="translate(-223 -227)"/><path class="cls-8" d="M522.71,361a3.57,3.57,0,0,1,3.63-2.2,3.62,3.62,0,0,1,3.19,2.7s.26,1.07.07.56c0,.1.39.82.31.63s.12,0,.19.12l.58.2c3.86.83,2.43,6.82-1.46,6.37C524.94,368.93,521.55,365.13,522.71,361Z" transform="translate(-223 -227)"/><path class="cls-4" d="M358,535.83c.15,14.51,12.43,29.17,23.61,38.12,12.62,10.1,26.84,15.33,43.22,16.66,2.46.2,3-3.68.53-4.08A81,81,0,0,1,386.14,568a74.74,74.74,0,0,1-13.33-15.18c-3.85-5.86-6.09-12.42-9.63-18.36C361.81,532.12,357.93,533.27,358,535.83Z" transform="translate(-223 -227)"/><path class="cls-5" d="M417.49,583a20.27,20.27,0,0,1,10.17-.37,14.54,14.54,0,0,1,5,1.72,7,7,0,0,1,3.27,4.17,6.74,6.74,0,0,1-1.28,5.15,13.17,13.17,0,0,1-12,5.87C412.15,598.61,406.66,586.74,417.49,583Z" transform="translate(-223 -227)"/><path class="cls-5" d="M430.42,588.24c.26-1.92,1.84-3.5,3.48-4.55s4.31-2.29,6.08-1.31A7.53,7.53,0,0,1,443.8,587a2.76,2.76,0,0,1-1.29,3.12,3.22,3.22,0,0,1-3.54-.34,6.78,6.78,0,0,1-1.81-2.31l-.19.13c-1,.79-1.59,1.94-2.58,2.71C432.56,591.7,430.11,590.51,430.42,588.24Z" transform="translate(-223 -227)"/><path class="cls-5" d="M427.29,593.65c.83-1.78,2.82-2.88,4.71-3.45,1.71-.52,4.82-1.06,6.22.34a7.23,7.23,0,0,1,2.3,5.4,2.88,2.88,0,0,1-2.17,2.66,3.2,3.2,0,0,1-3.3-1.26,6.7,6.7,0,0,1-1-2.71l-.22.08c-1.2.49-2.1,1.44-3.28,1.92C428.32,597.53,426.32,595.74,427.29,593.65Z" transform="translate(-223 -227)"/><path class="cls-5" d="M428.26,585.32a5.27,5.27,0,0,1,.71-4.45c.69-1.19,2.17-3.12,3.82-3a6.55,6.55,0,0,1,4.51,1.94,2.19,2.19,0,0,1,.3,2.68,2.57,2.57,0,0,1-2.66,1,5.87,5.87,0,0,1-2.2-1,.8.8,0,0,0-.08.16c-.41.91-.38,1.93-.78,2.82A1.93,1.93,0,0,1,428.26,585.32Z" transform="translate(-223 -227)"/><path class="cls-5" d="M409.12,590.06c0-3.88,2.91-9.48,7.61-9.67a2.14,2.14,0,0,1,1.7,3.59c-.85,1-2.09,1.57-2.87,2.67a6.08,6.08,0,0,0-1.09,3.3C414.33,593.16,409.11,593.33,409.12,590.06Z" transform="translate(-223 -227)"/></g></g></svg>