<svg xmlns="http://www.w3.org/2000/svg" viewBox="0 0 660 660"><defs><style>.cls-1{isolation:isolate;}.cls-2{fill:#ffa726;}.cls-3{fill:#efebe9;mix-blend-mode:multiply;}.cls-4{fill:#37474f;}.cls-5{fill:#fff;}.cls-6{fill:#ffb74d;}.cls-7{fill:#f8ff99;}.cls-8{fill:#fcfff8;}.cls-9{fill:#fb8c00;}</style></defs><title>icecream</title><g class="cls-1"><g id="Layer_1" data-name="Layer 1"><circle class="cls-2" cx="330" cy="330" r="330"/><ellipse class="cls-3" cx="348.53" cy="527.14" rx="165.46" ry="32.35"/><path class="cls-4" d="M675.36,475.07c16.73-5,29.89-23.27,36.79-38.49,7.77-17.18,9.43-34.5,5.9-52.89-.53-2.77-5.17-2.06-4.87.76,1.75,16.47-1.92,34.37-9.36,49.09a88.75,88.75,0,0,1-13.42,19.63c-5.59,6.16-12.49,10.78-18.27,16.63C669.88,472.08,672.41,476,675.36,475.07Z" transform="translate(-211 -205)"/><path class="cls-5" d="M711.31,390a21.85,21.85,0,0,1-7-9.19,16,16,0,0,1-1.6-5.87,7.54,7.54,0,0,1,7.83-8.39,14.58,14.58,0,0,1,13.61,7C730.12,384,722.1,397.41,711.31,390Z" transform="translate(-211 -205)"/><path class="cls-5" d="M706.37,374.71c-2.33.06-4.48-1.44-6-3.1s-3.45-4.44-2.59-6.61a9,9,0,0,1,4.79-5.13,3.41,3.41,0,0,1,3.93.88,3.55,3.55,0,0,1,.19,4.06,8.19,8.19,0,0,1-2.45,2.46c.07.06.12.13.19.19,1.11,1,2.57,1.44,3.66,2.41A2.69,2.69,0,0,1,706.37,374.71Z" transform="translate(-211 -205)"/><path class="cls-5" d="M711.2,371.25c-1.87-1.4-2.66-3.92-2.84-6.17-.17-2,0-5.64,2-6.82a8.84,8.84,0,0,1,6.9-1.08,3.43,3.43,0,0,1,2.56,3.13,3.52,3.52,0,0,1-2.31,3.32,8.36,8.36,0,0,1-3.44.43c0,.08,0,.17,0,.26.27,1.46,1.15,2.73,1.42,4.17A2.68,2.68,0,0,1,711.2,371.25Z" transform="translate(-211 -205)"/><path class="cls-5" d="M719.53,374.5a6.77,6.77,0,0,1-1.89-5.05c0-1.63.32-4.48,2-5.29a7.05,7.05,0,0,1,5.54-.45,2.74,2.74,0,0,1,1.85,2.64,2.8,2.8,0,0,1-2,2.49,6.38,6.38,0,0,1-2.74.14,1.48,1.48,0,0,0,0,.21c.13,1.17.75,2.23.88,3.39A2.12,2.12,0,0,1,719.53,374.5Z" transform="translate(-211 -205)"/><path class="cls-5" d="M714.25,387.26c1.09-1.17-2.56-3.92-4-4.85-2.12-1.39-5.41-.9-7.79.59a8.21,8.21,0,0,0-3.56-2.46c-3.64-1.42-5.46,4.39-1.84,5.81,1.88.74,3.71,2.32,5.78,2.37C705.17,388.78,712.63,389,714.25,387.26Z" transform="translate(-211 -205)"/><path class="cls-5" d="M723.74,392.79c-3.8,2.71-11.2,3.94-14.47-.28-1.45-1.88.31-4.22,2.41-4.11,1.55.08,2.91.84,4.49.8a7.57,7.57,0,0,0,4-1.31C723.36,385.77,727,390.5,723.74,392.79Z" transform="translate(-211 -205)"/><path class="cls-2" d="M417.85,605.79c3.9,6.29,7.55,12.65,11.08,19.06,12.44,2.71,25.1,5,37.9,6.77-4.68,24.8-1.36,53.1,18.77,70.85,9,9.13,24.15,0,27.17-15.21,2.43-17.16.9-34.31-2.92-51.47,58.88,3.14,118.93-4.27,173-25.51a276.34,276.34,0,0,1,18.49-38Z" transform="translate(-211 -205)"/><path class="cls-6" d="M682.9,610.28c-54.12,21.24-114.17,28.65-173,25.51,3.82,17.16,5.35,34.31,2.92,51.47-3,15.21-18.12,24.34-27.17,15.21-20.13-17.75-23.45-46.05-18.77-70.85-12.8-1.79-25.46-4.06-37.9-6.77a408.36,408.36,0,0,1,40.19,102.9c30.69,10.31,69.43,13.67,104.51,8.4s68.61-18.57,94.06-37.31C665.86,669.52,671.43,639.49,682.9,610.28Z" transform="translate(-211 -205)"/><path class="cls-7" d="M736,540.21c-.52,14.18-8.86,28-21.49,34.44-63.83,32.42-140.9,33.46-212.47,37.53h0l-4.4.24c-9.13.57,11.07,61-1.23,77.82-3.53,4.82-9.65,6.08-19.89,1.42-7.25-3.29-10.61-11.63-13-19.28a289.47,289.47,0,0,1-11.68-58.44c-.08-1-.17-2-.26-3l-6.66.25-33,1.28c-14.57-2.5-28.14-12.3-33.5-26.2a6.28,6.28,0,0,1-.24-.69s0,0,0-.06a36.6,36.6,0,0,1,3-30.77,29.55,29.55,0,0,1,7.49-8.38,2.5,2.5,0,0,1,.33-.26c-13.23-6.08-21.41-21.28-20.38-35.88s9.69-28,21.18-36.89c10.47-8.11,23.14-12.88,36.1-15.65h0c1.3-.28,2.54-.53,3.84-.79-7.36-.71-14.48-9.72-15.61-17.08a22.78,22.78,0,0,1-.22-5.15c.24-5.63,2.18-11.24,4.55-16.44a108.46,108.46,0,0,1,60.22-56.5c-11.17-.16-22.06-12.25-22.55-23.49S465,316.14,476.09,315c-5,3.06-7.32,12.28-4.17,17.24s9.24,7.41,15.08,7.62,11.56-1.46,17.18-3.12,11.34-3.36,17.18-3.18A28.12,28.12,0,0,1,545,348.5c15.66-4.18,31.07-.31,45.47,7.07a67.58,67.58,0,0,1,31.84,35.51c1.82,4.72,3.11,9.81,2.37,14.81s-4,9.88-8.76,11.38a137.72,137.72,0,0,1,47.86,6.65c15.41,5,29.79,14.69,37.93,28.81a47.84,47.84,0,0,1,5.37,33.53,37.53,37.53,0,0,1-5.45,12.91,30.35,30.35,0,0,1,5.62,1.09c14.16,4,25.4,17.15,28.13,31.89A37,37,0,0,1,736,540.21Z" transform="translate(-211 -205)"/><path d="M584.59,482.53c4.72-.62,7.93,2.84,8.93,7.08,2,8.5,5.76,20.67,2.26,29.06-1.75,4.19-7.27,4.54-10,1.2-2.89-3.55-3.8-9-4.92-13.39-1.25-4.94-2.13-10-3.31-15C576.56,487.24,580.65,483.05,584.59,482.53Z" transform="translate(-211 -205)"/><path d="M494.66,503.73c4.71-.61,7.92,2.85,8.93,7.08,2,8.51,5.76,20.67,2.25,29.06-1.75,4.19-7.26,4.55-10,1.21-2.88-3.56-3.79-9-4.91-13.39-1.25-4.94-2.14-10-3.31-15C486.62,508.44,490.71,504.25,494.66,503.73Z" transform="translate(-211 -205)"/><path d="M531.64,534.28c5.89,2,10.18,4.7,16.75,4.25,6-.41,10.31-3.32,15.51-6,3.6-1.85,6.31,3,4.37,5.85-8.24,12.09-32.38,13.86-41.93,2.69C523.19,537.39,527.81,533,531.64,534.28Z" transform="translate(-211 -205)"/><path d="M485.07,545.2c3-1.47,6.69.77,9.62,1.82s6.2,1.49,8.09,4a1.91,1.91,0,0,1-.36,2.61c-2.63,2.25-6.76,1.49-9.87.89s-8.08-1.56-9.23-5.13A3.33,3.33,0,0,1,485.07,545.2Z" transform="translate(-211 -205)"/><path d="M483.65,554.42c1.57-1.36,3.93-.9,5.78-.39a10.48,10.48,0,0,1,5,2.88c1.73,2-.06,4.46-2.1,5a10.46,10.46,0,0,1-5.48-.71c-1.62-.64-3.66-1.51-4.16-3.34A3.06,3.06,0,0,1,483.65,554.42Z" transform="translate(-211 -205)"/><path d="M597.17,522.77c3-1.48,6.69.76,9.62,1.81s6.2,1.5,8.09,4a1.92,1.92,0,0,1-.36,2.62c-2.63,2.24-6.76,1.49-9.87.88s-8.08-1.56-9.23-5.13A3.32,3.32,0,0,1,597.17,522.77Z" transform="translate(-211 -205)"/><path d="M595.75,532c1.57-1.35,3.94-.89,5.78-.39a10.56,10.56,0,0,1,5,2.88c1.73,2-.06,4.46-2.1,5a10.45,10.45,0,0,1-5.48-.7c-1.62-.64-3.66-1.52-4.16-3.34A3.09,3.09,0,0,1,595.75,532Z" transform="translate(-211 -205)"/><path d="M553.28,515.74c7.54-.91,9,10.9,1.4,11.81S545.73,516.65,553.28,515.74Z" transform="translate(-211 -205)"/><path class="cls-8" d="M544.45,440.56c-20.23,8.37-42.73,12.46-64.2,16.13-18.16,3.1-36.2,5.25-54.33,1,1.3-.28,2.54-.53,3.84-.79-7.36-.71-14.48-9.72-15.61-17.08a22.78,22.78,0,0,1-.22-5.15A91.94,91.94,0,0,0,437,443.19c34.72,7.71,71.72-4,106.36-6.79A2.18,2.18,0,0,1,544.45,440.56Z" transform="translate(-211 -205)"/><path class="cls-8" d="M451.71,554.75c-22.23,2.8-47.18,3.71-70.54,0a29.55,29.55,0,0,1,7.49-8.38,309.63,309.63,0,0,0,62.9,7.2C452.31,553.56,452.51,554.65,451.71,554.75Z" transform="translate(-211 -205)"/><path class="cls-8" d="M701.66,499.17a30.35,30.35,0,0,1,5.62,1.09c-15.61,9.78-34.83,11.93-51.88,18.31a.56.56,0,0,1-.42-1c14.7-6.82,30.27-13.35,43.32-23.11a53.6,53.6,0,0,0,8.81-8.17A37.53,37.53,0,0,1,701.66,499.17Z" transform="translate(-211 -205)"/><path class="cls-8" d="M496.35,690.24c-3.53,4.82-9.65,6.08-19.89,1.42-7.25-3.29-10.61-11.63-13-19.28a289.47,289.47,0,0,1-11.68-58.44,5.33,5.33,0,0,1-5.27,3.22H445c-.1-2-.18-4-.12-6a68.32,68.32,0,0,1,.4-8.08,59.24,59.24,0,0,1,2.52-12,1.21,1.21,0,0,1,2.21,0c6.17,15.87,6.14,33.7,9,50.39,2.66,15.87,7,59.93,32.18,46.35C493.2,686.76,495.56,688.24,496.35,690.24Z" transform="translate(-211 -205)"/><path class="cls-8" d="M736,540.21c-.52,14.18-8.86,28-21.49,34.44-63.83,32.42-140.9,33.46-212.47,37.53h0c-1.43-.52-2.83-1-4.26-1.62a1.13,1.13,0,0,1,.3-2.13c21.16-.84,43-6.71,64-9.64,20.72-2.89,41.4-6.1,61.88-10.14,21.38-4.22,42.6-9.69,63-17.58C704.71,564.13,724.83,556.72,736,540.21Z" transform="translate(-211 -205)"/><path class="cls-8" d="M451.8,613.94a5.33,5.33,0,0,1-5.27,3.22H445c-.1-2-.18-4-.12-6l-33,1.28c-14.57-2.5-28.14-12.3-33.5-26.2a6.28,6.28,0,0,1-.24-.69,28.87,28.87,0,0,0,2.71,2.59c6.21,5.21,13.7,7.78,21.47,9.47,14.11,3,28.75,2.86,42.93,5.47l1.47.28C451.57,604.33,453.47,610.16,451.8,613.94Z" transform="translate(-211 -205)"/><path class="cls-9" d="M614.33,632.89c-6-4.34-11.94-9.63-18.6-12.84-3.92-1.88-8.4,3.47-5.37,6.88,4.94,5.56,11.56,9.82,17.38,14.4,4.81,3.79,10.76,10.71,17.39,9.64a3.62,3.62,0,0,0,3.09-4C627.36,640.21,619.37,636.53,614.33,632.89Z" transform="translate(-211 -205)"/><path class="cls-9" d="M567.73,641.34c-4.92-4.6-11-10.08-17.73-11.43-3.39-.67-5.1,3.37-3.49,5.91,3.45,5.43,9.57,9.37,13.91,14.1,4,4.32,7.33,11.58,13.07,13.51,3.64,1.23,6.6-1.2,6.59-4.95C580.06,651.63,572.35,645.65,567.73,641.34Z" transform="translate(-211 -205)"/><path class="cls-9" d="M521,654.67c-4-4.24-9.82-11.1-16.23-10.29a2.57,2.57,0,0,0-2.2,2.82c.79,5.81,7.25,10.23,10.69,14.65,4,5.13,7.07,11.91,12.25,15.9,2.91,2.24,6.52-.25,6.41-3.64C531.66,666.75,525.77,659.75,521,654.67Z" transform="translate(-211 -205)"/><path class="cls-9" d="M571.45,698.68a96.94,96.94,0,0,0-16.93-17.12c-3.47-2.71-8.66,2-5.64,5.58a197.45,197.45,0,0,1,14,18.09c3.29,4.93,5.86,12.69,12.28,13.73a3.41,3.41,0,0,0,3.6-2C581.53,710.43,575.24,703.58,571.45,698.68Z" transform="translate(-211 -205)"/><path class="cls-9" d="M610.35,684c-2.86-4.06-6.6-8.44-11.24-10.39a3.07,3.07,0,0,0-4,4c1.8,4.27,4.84,7.95,6.91,12.1,1.93,3.87,3.27,9.08,6.73,11.78,2.72,2.11,6,.32,6.81-2.72C616.8,693.83,613.1,687.94,610.35,684Z" transform="translate(-211 -205)"/><path class="cls-4" d="M420,521.08c-17.42-.85-34.49-15.52-44.75-28.67-11.57-14.85-17.23-31.29-18.11-50-.13-2.82,4.54-3.23,4.91-.41,2.16,16.42,9.91,32.94,20.58,45.48a88.18,88.18,0,0,0,17.64,15.88C407.18,508,415,510.88,422,515.19,424.67,516.86,423.12,521.23,420,521.08Z" transform="translate(-211 -205)"/><path class="cls-5" d="M365.2,446.93c2.54-2.83,3.94-6.65,4.69-10.59a16,16,0,0,0,.18-6.09,7.52,7.52,0,0,0-9.57-6.3A14.65,14.65,0,0,0,348.92,434C345.52,445.55,356.46,456.7,365.2,446.93Z" transform="translate(-211 -205)"/><path class="cls-5" d="M366.43,430.92c2.28-.5,4-2.47,5.1-4.45,1-1.79,2.31-5.13,1-7a9,9,0,0,0-5.85-3.85,3.42,3.42,0,0,0-3.61,1.8,3.52,3.52,0,0,0,.76,4,8.09,8.09,0,0,0,2.95,1.81c-.05.07-.08.15-.14.23-.84,1.21-2.16,2-3,3.21A2.69,2.69,0,0,0,366.43,430.92Z" transform="translate(-211 -205)"/><path class="cls-5" d="M360.93,428.69c1.5-1.8,1.67-4.43,1.32-6.66-.32-2-1.3-5.49-3.52-6.16a8.9,8.9,0,0,0-7,.59,3.46,3.46,0,0,0-1.76,3.65,3.51,3.51,0,0,0,3,2.68,8.34,8.34,0,0,0,3.44-.4l0,.26c.07,1.49-.49,2.93-.41,4.39A2.67,2.67,0,0,0,360.93,428.69Z" transform="translate(-211 -205)"/><path class="cls-5" d="M353.59,433.84a6.76,6.76,0,0,0,.66-5.37c-.37-1.58-1.36-4.27-3.16-4.67a7.1,7.1,0,0,0-5.49.89,2.74,2.74,0,0,0-1.17,3,2.78,2.78,0,0,0,2.55,1.94,6.52,6.52,0,0,0,2.71-.52,1.38,1.38,0,0,1,0,.2c.15,1.18-.21,2.35-.06,3.51A2.12,2.12,0,0,0,353.59,433.84Z" transform="translate(-211 -205)"/><path class="cls-5" d="M361.72,445c-1.34-.88,1.57-4.42,2.72-5.66,1.73-1.85,5.05-2.16,7.71-1.28a8.2,8.2,0,0,1,2.88-3.23c3.2-2.25,6.33,3,3.15,5.21-1.66,1.16-3.07,3.14-5.06,3.68C370.89,444.3,363.69,446.27,361.72,445Z" transform="translate(-211 -205)"/><path class="cls-5" d="M353.79,452.61c4.32,1.73,11.8,1.17,14-3.71,1-2.18-1.29-4-3.3-3.42-1.49.44-2.64,1.51-4.18,1.84a7.62,7.62,0,0,1-4.15-.33C352.51,445.7,350.13,451.14,353.79,452.61Z" transform="translate(-211 -205)"/></g></g></svg>