<svg xmlns="http://www.w3.org/2000/svg" viewBox="0 0 576 576"><defs><style>.cls-1{isolation:isolate;}.cls-2{fill:#79cbff;}.cls-3{fill:#37474f;}.cls-4{fill:#fff;}.cls-5{fill:#efebe9;mix-blend-mode:multiply;}.cls-6{fill:#ffe0b2;}.cls-7{fill:#ffd1b2;}.cls-8{fill:#6d4c41;}.cls-9{fill:#4e342e;}.cls-10{fill:#a1887f;}.cls-11{fill:#ff8a80;}</style></defs><title>Pie</title><g class="cls-1"><g id="Layer_1" data-name="Layer 1"><circle class="cls-2" cx="288" cy="288" r="288"/><path class="cls-3" d="M674.17,536.62c12.63-3.82,22.56-17.94,27.76-29.68,5.88-13.24,7.12-26.59,4.46-40.78-.4-2.13-3.9-1.58-3.67.59a71.31,71.31,0,0,1-7.07,37.85,68.59,68.59,0,0,1-10.13,15.14c-4.22,4.74-9.43,8.31-13.79,12.82A2.49,2.49,0,0,0,674.17,536.62Z" transform="translate(-246 -249)"/><path class="cls-4" d="M701.31,471a16.69,16.69,0,0,1-5.31-7.08,12.57,12.57,0,0,1-1.21-4.53,6.62,6.62,0,0,1,1.47-4.59,6.3,6.3,0,0,1,4.44-1.88A10.94,10.94,0,0,1,711,458.37C715.5,466.38,709.44,476.74,701.31,471Z" transform="translate(-246 -249)"/><path class="cls-4" d="M697.58,459.25a6.29,6.29,0,0,1-4.53-2.4c-1-1.16-2.6-3.42-1.95-5.1a6.89,6.89,0,0,1,3.61-3.95,2.54,2.54,0,0,1,3,.68,2.79,2.79,0,0,1,.15,3.13,6.29,6.29,0,0,1-1.85,1.9l.14.14c.83.76,1.94,1.11,2.76,1.86A2.08,2.08,0,0,1,697.58,459.25Z" transform="translate(-246 -249)"/><path class="cls-4" d="M701.22,456.57a6.6,6.6,0,0,1-2.14-4.75c-.13-1.57,0-4.35,1.5-5.26a6.62,6.62,0,0,1,5.21-.84,2.64,2.64,0,0,1,1.93,2.42A2.7,2.7,0,0,1,706,450.7a6,6,0,0,1-2.59.33,1.2,1.2,0,0,0,0,.2c.2,1.13.87,2.11,1.07,3.22A2,2,0,0,1,701.22,456.57Z" transform="translate(-246 -249)"/><path class="cls-4" d="M707.51,459.08a5.26,5.26,0,0,1-1.43-3.9c0-1.25.25-3.44,1.5-4.07a5.26,5.26,0,0,1,4.18-.35,2.1,2.1,0,0,1,1.39,2,2.13,2.13,0,0,1-1.53,1.92,4.78,4.78,0,0,1-2.08.1.92.92,0,0,1,0,.16c.1.91.57,1.72.67,2.62A1.61,1.61,0,0,1,707.51,459.08Z" transform="translate(-246 -249)"/><path class="cls-4" d="M703.52,468.92c.83-.9-1.93-3-3-3.74-1.59-1.07-4.08-.69-5.88.45a6.17,6.17,0,0,0-2.68-1.89c-2.75-1.1-4.12,3.39-1.39,4.48,1.42.57,2.8,1.79,4.36,1.83C696.67,470.09,702.3,470.25,703.52,468.92Z" transform="translate(-246 -249)"/><path class="cls-4" d="M710.68,473.18c-2.86,2.1-8.45,3-10.91-.22a2,2,0,0,1,1.81-3.16c1.17.06,2.2.65,3.39.61a5.71,5.71,0,0,0,3-1C710.4,467.77,713.11,471.42,710.68,473.18Z" transform="translate(-246 -249)"/><path class="cls-3" d="M414.05,528.07c-13.16-.65-26-12-33.79-22.1-8.73-11.45-13-24.12-13.67-38.55-.1-2.17,3.43-2.49,3.71-.32a70.58,70.58,0,0,0,15.53,35.07,67.59,67.59,0,0,0,13.32,12.25c5.18,3.59,11.06,5.79,16.33,9.11A2.5,2.5,0,0,1,414.05,528.07Z" transform="translate(-246 -249)"/><path class="cls-4" d="M372.65,470.91a17.15,17.15,0,0,0,3.54-8.17,12.56,12.56,0,0,0,.13-4.7,6.51,6.51,0,0,0-2.47-4.1,6.2,6.2,0,0,0-4.75-.75,11.13,11.13,0,0,0-8.74,7.76C357.79,469.84,366.05,478.44,372.65,470.91Z" transform="translate(-246 -249)"/><path class="cls-4" d="M373.58,458.56a6.38,6.38,0,0,0,3.85-3.43c.74-1.38,1.74-4,.73-5.43a6.79,6.79,0,0,0-4.42-3,2.58,2.58,0,0,0-2.73,1.38,2.79,2.79,0,0,0,.58,3.08,6,6,0,0,0,2.23,1.39l-.11.18c-.63.94-1.63,1.55-2.25,2.47A2.06,2.06,0,0,0,373.58,458.56Z" transform="translate(-246 -249)"/><path class="cls-4" d="M369.42,456.84a6.66,6.66,0,0,0,1-5.14c-.24-1.56-1-4.22-2.66-4.74a6.61,6.61,0,0,0-5.26.45,2.67,2.67,0,0,0-1.32,2.82,2.65,2.65,0,0,0,2.28,2.06,6.05,6.05,0,0,0,2.59-.31l0,.21c.05,1.14-.37,2.25-.31,3.38A2,2,0,0,0,369.42,456.84Z" transform="translate(-246 -249)"/><path class="cls-4" d="M363.89,460.81a5.3,5.3,0,0,0,.49-4.13c-.28-1.23-1-3.3-2.38-3.61a5.31,5.31,0,0,0-4.15.68,2.16,2.16,0,0,0-.89,2.32,2.12,2.12,0,0,0,1.94,1.5,4.76,4.76,0,0,0,2-.41,1.1,1.1,0,0,1,0,.16c.11.91-.16,1.81,0,2.7A1.59,1.59,0,0,0,363.89,460.81Z" transform="translate(-246 -249)"/><path class="cls-4" d="M370,469.4c-1-.68,1.18-3.41,2.05-4.36,1.31-1.43,3.81-1.67,5.82-1a6.29,6.29,0,0,1,2.17-2.49c2.42-1.73,4.79,2.29,2.39,4-1.26.9-2.32,2.43-3.83,2.84C376.94,468.88,371.51,470.4,370,469.4Z" transform="translate(-246 -249)"/><path class="cls-4" d="M364,475.28c3.27,1.34,8.91.91,10.56-2.86a2,2,0,0,0-2.49-2.64c-1.12.35-2,1.17-3.15,1.43a5.61,5.61,0,0,1-3.14-.26C363.07,470,361.27,474.15,364,475.28Z" transform="translate(-246 -249)"/><ellipse class="cls-5" cx="293.96" cy="393.49" rx="185.04" ry="24.68"/><path class="cls-6" d="M669,638.35c14.69-4.57,30.48-11,38.88-25.18,11.73-19.84,3.85-44.82-4.33-65.4-9.37-23.59-18.82-47.33-32-68.42s-30.59-39.6-52.33-49.47c-17.16-7.79-36.23-9.9-55-11.93-35.37-3.83-73.31-7.13-105.69,11.83-31.49,18.44-51.2,54.14-69.16,88-7.25,13.63-14.57,27.45-18.6,42.41-13.51,50.08,21,70,57.12,80.41,49.81,14.28,101.51,20,154,15.17A423,423,0,0,0,669,638.35Z" transform="translate(-246 -249)"/><path class="cls-6" d="M702.46,590.6c6.85-7.05,7.09-19.19,5.23-31.82-1.3-3.77-2.7-7.46-4.11-11-9.37-23.59-18.82-47.33-32-68.42s-30.59-39.6-52.33-49.47c-17.16-7.79-36.23-9.9-55-11.93-35.37-3.83-73.31-7.13-105.69,11.83-31.49,18.44-51.2,54.14-69.16,88-7.25,13.63-14.57,27.45-18.6,42.41-13.51,50.08,21,70,57.12,80.41a437.16,437.16,0,0,0,70.53,14.12C572.53,657.43,645.53,644.92,702.46,590.6Z" transform="translate(-246 -249)"/><path class="cls-7" d="M707.69,558.78c1.86,12.63,1.62,24.77-5.23,31.82-56.93,54.32-129.93,66.83-204.06,64.07a407,407,0,0,0,83.43,1.05A423,423,0,0,0,669,638.35c14.69-4.57,30.48-11,38.88-25.18C717.61,596.75,713.89,576.83,707.69,558.78Z" transform="translate(-246 -249)"/><path class="cls-8" d="M410.9,509.56c12.27-2.9,19-13.44,30.21-17.24a7.26,7.26,0,0,1,4.33-.4c8.12,2.38.08,22.2-1.61,27.05-2.7,7.76-8.61,21.39-3.42,29.4,4.55,7,11.39,14.07,20.5,11.73,20.51-9.39,27.35-44.58,43.3-39.88,18.23,4.69,11.39,56.3,41,42.22,17-8.07,7.09-47.41,29.82-47.4,18.16,0,20.15,32.8,31.7,42.71,13.68,9.39,36.46,16.42,43.3-2.34,3.45-12.45-2.26-28.95,1.73-41.31a7.74,7.74,0,0,1,13.11-2.8c8.11,8.51,17.92,11.11,27.23,8.43-6-14-12.62-27.68-20.58-40.38-13.23-21.09-30.59-39.6-52.33-49.47-17.16-7.79-36.23-9.9-55-11.93-35.37-3.83-73.31-7.13-105.69,11.83-27.78,16.27-46.39,46-62.68,76A17,17,0,0,0,410.9,509.56Z" transform="translate(-246 -249)"/><path class="cls-9" d="M577.25,434.28c-1.68-.59-2.89,1.79-1.69,3,.42.43,7.62,4,.32,5.57a102.25,102.25,0,0,1-20.78,1.84,100.47,100.47,0,0,1-18.81-2.62,87.39,87.39,0,0,1-9-2.4c-1.55-.52-15.55-5.47-3.81-8.57a.7.7,0,0,0-.18-1.37c-5,0-13.18,1.82-11.6,8.54,2.64,11.18,26.78,14.08,34.72,15.11,9.74,1.25,30.36,3.29,37.73-5.79C589.19,441.43,583,436.31,577.25,434.28Z" transform="translate(-246 -249)"/><path class="cls-10" d="M555.19,430.18c-7.47-3.66-19.47-4.11-27.3-1.52a.9.9,0,0,0,.23,1.75c4.45.29,8.91-.28,13.37,0s8.8,1.49,13.23,1.57A1,1,0,0,0,555.19,430.18Z" transform="translate(-246 -249)"/><path class="cls-10" d="M568,432.33a5.18,5.18,0,0,0-4.4-.85.53.53,0,0,0,0,1,15.39,15.39,0,0,0,4,.82A.58.58,0,0,0,568,432.33Z" transform="translate(-246 -249)"/><path class="cls-10" d="M489.89,460.5c-1.57-2.28-.58-.39-2.77-1.82a10.71,10.71,0,0,0-1.47.32c-2.29-.93-3.41-2.48-3.34-4.64-.39-.58-.2-.86-.9-1.77-2.91-3.83-9.78-2.11-14.16-1.44,1.6-6.21,8.32-10,11.18-15.5a1.83,1.83,0,0,0,0-1.8c-2.58-3.67-8.32-2-12.06-1.16-5,1.16-11.13,3.42-14.14,7.87a.86.86,0,0,0,.94,1.25c3.41-1.06,6.34-3.29,9.74-4.5a36.78,36.78,0,0,1,5.25-1.45,31.52,31.52,0,0,1,4.94-.55c1.06.52,1.13,1.09.21,1.7-.63,2.5-4.61,5.66-6.14,8a13.32,13.32,0,0,0-2.55,7.57,1.2,1.2,0,0,0,1.49,1.17c2.59-.54,7.92-2.52,10.35-1.78l4.53,4a5.64,5.64,0,0,0,0,1.74c.17.43.08.95.28,1.39,1.81,4.07,5.21-.15,8.11,2C489.66,461.3,490.12,460.83,489.89,460.5Z" transform="translate(-246 -249)"/><path class="cls-10" d="M499.41,462.48a8.06,8.06,0,0,0-2.26-1.49c-2-.78-2.89,3.07-.42,3.22a7.65,7.65,0,0,0,2.34-.42A.8.8,0,0,0,499.41,462.48Z" transform="translate(-246 -249)"/><path class="cls-10" d="M646.16,460.88c-6.35-5.92-13.36-12.23-21.06-16.22-.56-.29-1.29.52-.72,1,5.7,4.55,12.83,8.05,17.71,13.59,1.4,1.58,2,1.17.52,2.56-1,.93-3.52,1.09-4.86,1.38a41.71,41.71,0,0,1-15.67.19c-.48-.08-1.13.46-.74,1q-1.41,7-6.16,6.57c-1,0-2-.06-3-.15a70.1,70.1,0,0,1-7.07-.92A87.46,87.46,0,0,1,594,467a.56.56,0,0,0-.68.69c1.07,5.6-13.56,4.27-17.32,3.94-6.6-.57-13.09-2-19.68-2.72-12.21-1.43-24.56,3.33-36-3a.8.8,0,0,0-.94,1.26c8.3,8.94,22.11,4,32.53,4.47,7.33.29,14.56,2,21.89,2.17a86.73,86.73,0,0,0,20.67-2.31.43.43,0,0,0,.3-.41c-.47-4.19,4.41-1.17,6.91-.56a68.91,68.91,0,0,0,9.46,1.58c3.55.35,9.19,1.14,11.59-2.53.72-1.11.44-2.23.87-3.32.73-1.83-1.1-1.4,2.29-1a41.71,41.71,0,0,0,19.94-3.1A.78.78,0,0,0,646.16,460.88Z" transform="translate(-246 -249)"/><path class="cls-3" d="M522.81,587.67c.8-3.75,1.93-7.34,5.26-9.48a3,3,0,0,1,4.16.67c2.22,3.62,1.88,7.28.93,11.29s-2,8.46-4.48,11.91c-2.17,3-6.36,1.12-7-2.09C521,595.94,522,591.62,522.81,587.67Z" transform="translate(-246 -249)"/><path class="cls-3" d="M477.41,578.23c.81-3.75,1.93-7.34,5.27-9.48a3,3,0,0,1,4.16.67c2.22,3.61,1.87,7.27.93,11.28s-2,8.46-4.48,11.92c-2.17,3-6.36,1.11-7-2.1C475.58,586.5,476.56,582.17,477.41,578.23Z" transform="translate(-246 -249)"/><path class="cls-3" d="M487,606.77c3.14,2.39,5.45,5.53,9.26,6.93,4.9,1.79,9.12.49,13.91-.79a1.1,1.1,0,0,1,1,1.9c-7.09,6.65-23.67,3.3-25.88-7.09C485.07,606.74,486.3,606.27,487,606.77Z" transform="translate(-246 -249)"/><path class="cls-11" d="M528.05,611.8a28.37,28.37,0,0,1,7.89,3.5c-.06-.59-.14-1.18-.23-1.78a1.67,1.67,0,0,1,2.31-1.74,11.63,11.63,0,0,1,6.76,6.72c.36,1.06-.95,2.3-1.84,1.39a39.65,39.65,0,0,0-3.29-3.11c.16.71.32,1.43.5,2.14.36,1.53-1.53,2.68-2.76,2.08-3.53-1.75-7.59-4-10.31-7C526.34,613.23,526.72,611.48,528.05,611.8Z" transform="translate(-246 -249)"/><path class="cls-11" d="M461.9,595.18a30,30,0,0,1,6.4,3c0-.33,0-.67,0-1a1.18,1.18,0,0,1,1.63-1.22c1.94.94,4,1.92,5.28,3.74a.63.63,0,0,1-.58,1,8.9,8.9,0,0,1-3.84-1.38,8.89,8.89,0,0,0,.23,1c.38,1.26-.83,2.88-2.17,2.12A39,39,0,0,1,460.8,597,1.09,1.09,0,0,1,461.9,595.18Z" transform="translate(-246 -249)"/><path class="cls-11" d="M495.37,595.91a7.21,7.21,0,0,1,.92.11c2.09.37,2.17-2.15,3.7-2.23s1.45,2.59,1.08,3.88c-.8,2.82-3.33,5.66-6.43,5.12C490.37,602,491,595.65,495.37,595.91Z" transform="translate(-246 -249)"/></g></g></svg>